<svg id="visual" viewBox="0 0 900 600" width="900" height="600" xmlns="http://www.w3.org/2000/svg" xmlns:xlink="http://www.w3.org/1999/xlink" version="1.1"><rect x="0" y="0" width="900" height="600" fill="#363636"></rect><defs><linearGradient id="grad1_0" x1="33.3%" y1="100%" x2="100%" y2="0%"><stop offset="20%" stop-color="#f2c49b" stop-opacity="1"></stop><stop offset="80%" stop-color="#f2c49b" stop-opacity="1"></stop></linearGradient></defs><defs><linearGradient id="grad1_1" x1="33.3%" y1="100%" x2="100%" y2="0%"><stop offset="20%" stop-color="#f2c49b" stop-opacity="1"></stop><stop offset="80%" stop-color="#363636" stop-opacity="1"></stop></linearGradient></defs><defs><linearGradient id="grad2_0" x1="0%" y1="100%" x2="66.7%" y2="0%"><stop offset="20%" stop-color="#f2c49b" stop-opacity="1"></stop><stop offset="80%" stop-color="#f2c49b" stop-opacity="1"></stop></linearGradient></defs><defs><linearGradient id="grad2_1" x1="0%" y1="100%" x2="66.7%" y2="0%"><stop offset="20%" stop-color="#363636" stop-opacity="1"></stop><stop offset="80%" stop-color="#f2c49b" stop-opacity="1"></stop></linearGradient></defs><g transform="translate(900, 600)"><path d="M-324.5 0C-317.9 -24.4 -311.3 -48.8 -294.4 -67.2C-277.6 -85.6 -250.4 -97.9 -237 -114.1C-223.5 -130.3 -223.7 -150.3 -222.8 -177.7C-222 -205.1 -220.1 -239.8 -202.3 -253.7C-184.5 -267.6 -150.7 -260.5 -125.4 -260.4C-100 -260.2 -83.1 -267 -63.6 -278.8C-44.1 -290.7 -22.1 -307.6 0 -324.5L0 0Z" fill="#8f7966"></path><path d="M-162.2 0C-158.9 -12.2 -155.6 -24.4 -147.2 -33.6C-138.8 -42.8 -125.2 -49 -118.5 -57.1C-111.7 -65.1 -111.8 -75.2 -111.4 -88.8C-111 -102.5 -110.1 -119.9 -101.2 -126.9C-92.3 -133.8 -75.4 -130.3 -62.7 -130.2C-50 -130.1 -41.6 -133.5 -31.8 -139.4C-22.1 -145.3 -11 -153.8 0 -162.2L0 0Z" fill="#f2c49b"></path></g><g transform="translate(0, 0)"><path d="M324.5 0C315.7 22.7 306.9 45.4 301.3 68.8C295.6 92.1 293.1 116.2 280.2 134.9C267.3 153.6 244.2 167 222.8 177.7C201.5 188.4 182 196.6 165.8 208C149.7 219.3 137 233.9 122.8 255C108.6 276.1 92.9 303.7 72.2 316.4C51.5 329 25.7 326.8 0 324.5L0 0Z" fill="#8f7966"></path><path d="M162.2 0C157.9 11.3 153.5 22.7 150.6 34.4C147.8 46.1 146.5 58.1 140.1 67.5C133.7 76.8 122.1 83.5 111.4 88.8C100.7 94.2 91 98.3 82.9 104C74.9 109.7 68.5 116.9 61.4 127.5C54.3 138 46.5 151.8 36.1 158.2C25.7 164.5 12.9 163.4 0 162.2L0 0Z" fill="#f2c49b"></path></g></svg>