<svg id="visual" viewBox="0 0 540 960" width="540" height="960" xmlns="http://www.w3.org/2000/svg" xmlns:xlink="http://www.w3.org/1999/xlink" version="1.1"><rect x="0" y="0" width="540" height="960" fill="#363636"></rect><defs><linearGradient id="grad1_0" x1="0%" y1="100%" x2="100%" y2="0%"><stop offset="30%" stop-color="#f2c49b" stop-opacity="1"></stop><stop offset="70%" stop-color="#f2c49b" stop-opacity="1"></stop></linearGradient></defs><defs><linearGradient id="grad1_1" x1="0%" y1="100%" x2="100%" y2="0%"><stop offset="30%" stop-color="#f2c49b" stop-opacity="1"></stop><stop offset="70%" stop-color="#363636" stop-opacity="1"></stop></linearGradient></defs><defs><linearGradient id="grad2_0" x1="0%" y1="100%" x2="100%" y2="0%"><stop offset="30%" stop-color="#f2c49b" stop-opacity="1"></stop><stop offset="70%" stop-color="#f2c49b" stop-opacity="1"></stop></linearGradient></defs><defs><linearGradient id="grad2_1" x1="0%" y1="100%" x2="100%" y2="0%"><stop offset="30%" stop-color="#363636" stop-opacity="1"></stop><stop offset="70%" stop-color="#f2c49b" stop-opacity="1"></stop></linearGradient></defs><g transform="translate(540, 960)"><path d="M-216 0C-215.7 -24.5 -215.3 -49 -202.6 -65.8C-189.8 -82.7 -164.7 -91.9 -152.1 -110.5C-139.5 -129.1 -139.4 -157.2 -127 -174.7C-114.5 -192.3 -89.7 -199.4 -66.4 -204.5C-43.2 -209.6 -21.6 -212.8 0 -216L0 0Z" fill="#8f7966"></path><path d="M-108 0C-107.8 -12.2 -107.7 -24.5 -101.3 -32.9C-94.9 -41.3 -82.3 -45.9 -76 -55.3C-69.7 -64.6 -69.7 -78.6 -63.5 -87.4C-57.3 -96.2 -44.8 -99.7 -33.2 -102.2C-21.6 -104.8 -10.8 -106.4 0 -108L0 0Z" fill="#f2c49b"></path></g><g transform="translate(0, 0)"><path d="M216 0C205.3 19.4 194.5 38.9 190.2 61.8C185.9 84.7 188 111.2 174.7 127C161.5 142.8 133.1 147.9 111.1 152.9C89.1 157.9 73.7 162.6 56.2 173.1C38.8 183.6 19.4 199.8 0 216L0 0Z" fill="#8f7966"></path><path d="M108 0C102.6 9.7 97.3 19.4 95.1 30.9C92.9 42.4 94 55.6 87.4 63.5C80.8 71.4 66.5 74 55.5 76.5C44.6 78.9 36.8 81.3 28.1 86.5C19.4 91.8 9.7 99.9 0 108L0 0Z" fill="#f2c49b"></path></g></svg>